<?xml version="1.0" encoding="iso-8859-1"?>
<!-- Generator: Adobe Illustrator 19.0.0, SVG Export Plug-In . SVG Version: 6.00 Build 0)  -->
<svg version="1.1" id="Layer_1" xmlns="http://www.w3.org/2000/svg" xmlns:xlink="http://www.w3.org/1999/xlink" x="0px" y="0px"
	 viewBox="0 0 512 512" style="enable-background:new 0 0 512 512;" xml:space="preserve">
<path style="fill:#8F5543;" d="M411.916,101.682H100.083c-8.271,0-15.459-5.678-17.375-13.724L67.005,21.997
	C64.334,10.777,72.858,0,84.38,0h343.239c11.533,0,20.044,10.787,17.375,21.997l-15.703,65.961
	C427.376,96.004,420.188,101.682,411.916,101.682z"/>
<path style="fill:#784738;" d="M427.619,0H256v101.682h155.917c8.271,0,15.459-5.678,17.375-13.724l15.703-65.961
	C447.663,10.787,439.152,0,427.619,0z"/>
<path style="fill:#8F5543;" d="M427.619,512H84.38c-11.533,0-20.044-10.787-17.375-21.997l15.702-65.961
	c1.916-8.046,9.104-13.724,17.375-13.724h311.834c8.271,0,15.459,5.678,17.375,13.724l15.703,65.961
	C447.666,501.223,439.143,512,427.619,512z"/>
<path style="fill:#784738;" d="M444.994,490.003l-15.703-65.961c-1.916-8.046-9.104-13.724-17.375-13.724H256V512h171.619
	C439.143,512,447.666,501.223,444.994,490.003z"/>
<path style="fill:#C97E67;" d="M411.911,446.04H100.088c-8.248,0-15.424-5.649-17.362-13.667
	c-26.458-109.513-26.503-243.038,0-352.751c1.936-8.018,9.112-13.667,17.362-13.667h311.823c8.249,0,15.424,5.649,17.362,13.667
	c26.454,109.51,26.51,243.024,0,352.751C427.336,440.391,420.159,446.04,411.911,446.04z"/>
<path style="fill:#8F5543;" d="M429.273,79.622c-1.936-8.018-9.112-13.667-17.362-13.667H256V446.04h155.911
	c8.248,0,15.424-5.649,17.362-13.667C455.783,322.646,455.725,189.132,429.273,79.622z"/>
<g>
	<path style="fill:#FAE8AC;" d="M255.999,360.542c-41.184,0-76.943-12.418-76.943-53.079c0-37.899,34.516-68.732,76.943-68.732
		s76.943,30.833,76.943,68.732C332.941,348.103,297.222,360.542,255.999,360.542z"/>
	<path style="fill:#FAE8AC;" d="M255.999,233.473c-23.269,0-42.201-18.931-42.201-42.201s18.931-42.201,42.201-42.201
		s42.201,18.931,42.201,42.201S279.269,233.473,255.999,233.473z"/>
	<path style="fill:#FAE8AC;" d="M319.115,253.042c-19.007-13.425-23.55-39.81-10.126-58.816
		c13.455-19.051,39.762-23.582,58.816-10.126c19.006,13.423,23.548,39.807,10.126,58.816l0,0
		C364.511,261.918,338.129,266.467,319.115,253.042z"/>
	<path style="fill:#FAE8AC;" d="M168.537,260.773c-23.27,0-42.201-18.931-42.201-42.201s18.931-42.201,42.201-42.201
		c23.269,0,42.201,18.931,42.201,42.201C210.737,241.843,191.806,260.773,168.537,260.773z"/>
</g>
<g>
	<path style="fill:#F6D86E;" d="M332.941,307.463c0-37.899-34.516-68.731-76.94-68.732v121.811
		C297.223,360.542,332.941,348.103,332.941,307.463z"/>
	<path style="fill:#F6D86E;" d="M298.2,191.272c0-23.269-18.931-42.2-42.2-42.201v84.401
		C279.269,233.472,298.2,214.541,298.2,191.272z"/>
	<path style="fill:#F6D86E;" d="M319.115,253.042c-19.007-13.425-23.55-39.81-10.126-58.816
		c13.455-19.051,39.762-23.582,58.816-10.126c19.006,13.423,23.548,39.807,10.126,58.816l0,0
		C364.511,261.918,338.129,266.467,319.115,253.042z"/>
</g>
<g>
</g>
<g>
</g>
<g>
</g>
<g>
</g>
<g>
</g>
<g>
</g>
<g>
</g>
<g>
</g>
<g>
</g>
<g>
</g>
<g>
</g>
<g>
</g>
<g>
</g>
<g>
</g>
<g>
</g>
</svg>
